<svg width="34" height="34" viewBox="0 0 34 34" fill="none" xmlns="http://www.w3.org/2000/svg">
<path d="M32.3001 24.6501V9.35005C32.3001 7.93905 31.1611 6.80005 29.7501 6.80005H5.93306C4.52206 6.80005 3.38306 7.93905 3.38306 9.35005V24.6501C3.38306 26.0611 4.52206 27.2001 5.93306 27.2001H29.7501C31.1611 27.2001 32.3001 26.0611 32.3001 24.6501ZM30.0731 9.16305C30.6341 9.72405 30.3281 10.302 30.0221 10.591L23.1201 16.915L29.7501 23.8171C29.9541 24.0551 30.0901 24.4291 29.8521 24.6841C29.6311 24.9561 29.1211 24.9391 28.9001 24.7691L21.4711 18.4281L17.8331 21.7431L14.2121 18.4281L6.78306 24.7691C6.56206 24.9391 6.05206 24.9561 5.83106 24.6841C5.59306 24.4291 5.72906 24.0551 5.93306 23.8171L12.5631 16.915L5.66106 10.591C5.35506 10.302 5.04906 9.72405 5.61006 9.16305C6.17106 8.60205 6.74906 8.87405 7.22506 9.28205L17.8331 17.85L28.4581 9.28205C28.9341 8.87405 29.5121 8.60205 30.0731 9.16305Z" fill="#1B5E20"/>
</svg>
