<svg width="28" height="29" viewBox="0 0 28 29" fill="none" xmlns="http://www.w3.org/2000/svg">
<g clip-path="url(#clip0_17_209)">
<path fill-rule="evenodd" clip-rule="evenodd" d="M0 14.581C0 21.7899 5.05517 27.7844 11.6667 29V18.5274H8.16667V14.5H11.6667V11.2774C11.6667 7.65238 13.9218 5.63929 17.1115 5.63929C18.1218 5.63929 19.2115 5.8 20.2218 5.96071V9.66667H18.4333C16.7218 9.66667 16.3333 10.5524 16.3333 11.681V14.5H20.0667L19.4448 18.5274H16.3333V29C22.9448 27.7844 28 21.7911 28 14.581C28 6.56125 21.7 0 14 0C6.3 0 0 6.56125 0 14.581Z" fill="#1B5E20"/>
</g>
<defs>
<clipPath id="clip0_17_209">
<rect width="28" height="29" fill="white"/>
</clipPath>
</defs>
</svg>
