<svg width="41" height="41" viewBox="0 0 41 41" fill="none" xmlns="http://www.w3.org/2000/svg">
<path d="M33.8578 33.9507C33.8414 33.9482 33.7844 33.9335 33.681 33.8624L31.08 31.2639C31.0356 31.199 31.0125 31.1218 31.0143 31.0429L31.0146 31.0266V31.0103C31.0146 31.0052 31.0147 31.0005 31.0149 30.9964L31.0182 30.9933L31.024 30.9871C31.0286 30.9869 31.0338 30.9868 31.0396 30.9868C31.1021 30.9868 31.1291 30.9967 31.135 30.999C31.1396 31.0007 31.1488 31.0045 31.1656 31.019L33.9362 33.7302C33.954 33.7515 33.9619 33.7675 33.9663 33.7787C33.9718 33.7928 33.9793 33.8188 33.9793 33.8645C33.9793 33.8794 33.9785 33.8907 33.9775 33.899C33.9099 33.9389 33.871 33.9487 33.8578 33.9507ZM33.8578 33.9507C33.8545 33.9507 33.8528 33.951 33.8527 33.9511C33.8527 33.9513 33.8544 33.9513 33.8578 33.9507ZM33.8578 33.9507C33.8612 33.9513 33.8629 33.9513 33.8629 33.9511C33.8629 33.951 33.8612 33.9507 33.8578 33.9507ZM1.5 20.4912H1.50004V20.4807C1.50004 20.4181 1.50997 20.3919 1.51196 20.3869C1.51341 20.3833 1.5152 20.3796 1.51839 20.3748C1.52019 20.3721 1.52315 20.368 1.5278 20.3624C1.54825 20.346 1.56456 20.3378 1.57621 20.3332C1.5914 20.3272 1.61165 20.3222 1.64081 20.3222H5.57866C5.58496 20.3222 5.59034 20.3223 5.59485 20.3226C5.61597 20.3501 5.62418 20.3683 5.62807 20.3785C5.63286 20.391 5.64222 20.42 5.64222 20.4807C5.64222 20.5645 5.63037 20.6024 5.62639 20.6135C5.62447 20.6189 5.62144 20.6268 5.61318 20.6389C5.60869 20.6391 5.60362 20.6392 5.59796 20.6392H1.66011C1.63629 20.6392 1.62237 20.6372 1.61624 20.636C1.61304 20.6354 1.61118 20.6349 1.61036 20.6347L1.60913 20.6343L1.6075 20.6335C1.60646 20.6329 1.60431 20.6317 1.60102 20.6294C1.59468 20.6251 1.58146 20.6153 1.56208 20.5959L1.54755 20.5814L1.53262 20.5673C1.52212 20.5574 1.51387 20.5455 1.50829 20.5324C1.50271 20.5193 1.4999 20.5053 1.5 20.4912ZM7.02047 33.8743L7.02075 33.8598V33.8452C7.02075 33.8025 7.02726 33.7774 7.03489 33.7575C7.04114 33.7412 7.05378 33.714 7.08102 33.6757L9.84772 30.9868L9.86301 30.9719C9.87995 30.9697 9.90547 30.9675 9.94118 30.9675C10.0037 30.9675 10.0307 30.9774 10.0366 30.9797C10.0407 30.9813 10.0486 30.9845 10.0624 30.9957C10.0625 30.9999 10.0626 31.0048 10.0626 31.0103C10.0626 31.1079 10.0398 31.1703 9.99681 31.2258L7.37463 33.8455C7.30347 33.8951 7.25168 33.9203 7.21988 33.9327C7.20006 33.9404 7.18731 33.9435 7.18095 33.9447C7.1748 33.9459 7.17196 33.9459 7.17117 33.9459C7.17038 33.9459 7.16755 33.9459 7.16139 33.9447C7.15503 33.9435 7.14228 33.9404 7.12247 33.9327C7.09918 33.9236 7.06516 33.9077 7.02068 33.8803C7.0205 33.8783 7.02043 33.8763 7.02047 33.8743ZM7.02018 7.19605L7.02075 7.17541V7.15475C7.02075 7.11204 7.02726 7.08693 7.0349 7.06699C7.03754 7.06009 7.04132 7.05127 7.04686 7.04048C7.12007 6.99745 7.16447 6.99624 7.20013 6.99624C7.22715 6.99624 7.2381 7.00039 7.24307 7.00241C7.24795 7.00438 7.26568 7.01205 7.29531 7.03734L10.0247 9.84042L10.0488 9.86516L10.0591 9.87481C10.0608 9.88627 10.0626 9.90491 10.0626 9.9318C10.0626 9.96396 10.06 9.98463 10.0579 9.99589C10.0569 10.0016 10.0559 10.0054 10.0553 10.0075L10.0543 10.0104C10.0537 10.0113 10.0497 10.0172 10.0392 10.0277C10.0287 10.0383 10.0227 10.0423 10.0217 10.043C10.0216 10.043 10.0215 10.0431 10.0214 10.0432L10.0181 10.0443C10.0158 10.0449 10.0119 10.0459 10.0061 10.047C9.99455 10.0491 9.97361 10.0517 9.94118 10.0517C9.91326 10.0517 9.89409 10.0498 9.8825 10.048L9.87423 10.0392L9.85138 10.0168L7.04885 7.27443C7.03992 7.26438 7.03287 7.25289 7.02799 7.24051C7.02241 7.22633 7.01976 7.21122 7.02018 7.19605ZM10.0215 10.0431L10.0215 10.0432L10.0215 10.0431ZM9.89623 10.0626C9.89623 10.0626 9.89619 10.0626 9.89611 10.0625C9.8962 10.0626 9.89623 10.0626 9.89623 10.0626ZM26.5321 14.4528L26.5377 14.4586L26.5434 14.4643C27.3105 15.2306 27.9168 16.1281 28.3644 17.1879C28.8087 18.2401 29.0377 19.3533 29.0377 20.5C29.0377 22.0547 28.6606 23.4685 27.8934 24.773C27.1158 26.0954 26.0835 27.1268 24.7596 27.9039C23.4535 28.6705 22.0376 29.0475 20.4807 29.0475C18.9238 29.0475 17.508 28.6705 16.2019 27.9039C14.8833 27.13 13.8539 26.1037 13.0774 24.7891C12.3313 23.4418 11.9431 22.0185 11.9431 20.4807C11.9431 18.9469 12.3194 17.5327 13.0873 16.227C13.8685 14.8986 14.9016 13.853 16.2335 13.0809C17.5679 12.3073 18.9683 11.9332 20.5 11.9332C21.6422 11.9332 22.7327 12.1596 23.8024 12.6193C24.8852 13.0931 25.7978 13.7033 26.5321 14.4528ZM20.3588 39.3573L20.3592 39.3398V39.3222V35.4845C20.3592 35.4543 20.3616 35.4355 20.3632 35.4262C20.3649 35.4245 20.3669 35.4225 20.3694 35.4202L19.3418 34.3274L20.3694 35.4202C20.4081 35.3837 20.4295 35.375 20.4341 35.3731C20.4384 35.3715 20.4556 35.3645 20.5 35.3645C20.5643 35.3645 20.5945 35.375 20.6018 35.3778C20.607 35.3798 20.61 35.3811 20.6173 35.3885L21.6775 34.3274L20.6174 35.3885C20.6279 35.3991 20.6319 35.4049 20.6325 35.4059C20.6325 35.4059 20.6325 35.4059 20.6325 35.406L20.6335 35.4088C20.6341 35.4109 20.635 35.4147 20.6361 35.4204C20.6381 35.4316 20.6408 35.4523 20.6408 35.4845V39.3222C20.6408 39.3848 20.6309 39.411 20.6289 39.416C20.6274 39.4197 20.6256 39.4233 20.6224 39.4281C20.6192 39.433 20.6121 39.4427 20.5981 39.4567C20.5787 39.4761 20.5655 39.4859 20.5591 39.4902C20.5558 39.4924 20.5537 39.4937 20.5526 39.4942L20.551 39.495L20.5498 39.4954C20.549 39.4957 20.5471 39.4962 20.5439 39.4968C20.5378 39.498 20.5238 39.5 20.5 39.5C20.4759 39.5 20.4594 39.4979 20.4496 39.4961C20.4435 39.4949 20.4396 39.4938 20.4375 39.4932C20.4366 39.4923 20.4353 39.4911 20.4336 39.4893L20.4157 39.4703L20.3971 39.4519C20.3845 39.4394 20.3747 39.4246 20.3681 39.4084L18.9772 39.9697L20.3681 39.4083C20.3616 39.3921 20.3584 39.3748 20.3588 39.3573ZM31.0146 9.95108C31.0146 9.91552 31.0171 9.8903 31.0196 9.87388L31.0369 9.85593L33.7555 7.04433C33.7773 7.02583 33.8054 7.01544 33.8347 7.01552H33.8385C33.87 7.01552 33.8892 7.01805 33.8985 7.0197C33.9003 7.02141 33.9024 7.02357 33.9049 7.02621L33.9205 7.04275L33.9366 7.05881C33.9559 7.07817 33.9657 7.09134 33.97 7.09759C33.9722 7.10083 33.9734 7.10292 33.9739 7.10389L33.9746 7.10526L33.9749 7.10618C33.9751 7.10687 33.9756 7.10862 33.9762 7.11168C33.9773 7.11755 33.9793 7.1312 33.9793 7.15475C33.9793 7.23491 33.9667 7.2707 33.9641 7.27763L33.9623 7.28167L33.9619 7.28245L33.9608 7.28392C33.9603 7.28455 33.9594 7.28558 33.9581 7.28699L31.1811 10.0043C31.0999 10.0717 31.0637 10.0713 31.0429 10.0711C31.0429 10.0711 31.0429 10.0711 31.0429 10.0711C31.0312 10.0569 31.028 10.0489 31.0265 10.0451C31.0244 10.0396 31.0146 10.013 31.0146 9.95108ZM20.3865 5.61641C20.3715 5.60229 20.3633 5.59172 20.3592 5.58583V1.65851C20.3592 1.63496 20.3613 1.62132 20.3624 1.61545C20.363 1.61238 20.3634 1.61064 20.3636 1.60994L20.3639 1.60903L20.3646 1.60766C20.3652 1.60668 20.3663 1.6046 20.3686 1.60135C20.3728 1.5951 20.3826 1.58193 20.402 1.56257C20.4267 1.53784 20.4451 1.52352 20.4563 1.51573C20.4671 1.50817 20.473 1.50554 20.4744 1.50492C20.4757 1.50437 20.4774 1.50368 20.4816 1.50285C20.4859 1.50196 20.4977 1.5 20.5193 1.5C20.5482 1.5 20.5647 1.50212 20.5716 1.50327C20.5777 1.5075 20.5931 1.51902 20.6174 1.54328C20.6367 1.56265 20.6465 1.57581 20.6508 1.58206C20.653 1.58531 20.6542 1.5874 20.6547 1.58837L20.6554 1.58974L20.6557 1.59066C20.6559 1.59135 20.6564 1.5931 20.657 1.59616C20.6581 1.60203 20.6601 1.61568 20.6601 1.63923V5.59266C20.6601 5.599 20.6599 5.60438 20.6597 5.60887C20.657 5.61164 20.6538 5.61483 20.65 5.61841L21.6775 6.7112L20.65 5.61841C20.6355 5.63199 20.6265 5.63808 20.623 5.64027C20.6197 5.64236 20.6177 5.64324 20.6156 5.64403L20.6156 5.64405C20.6132 5.64494 20.587 5.65475 20.5193 5.65475C20.4319 5.65475 20.4002 5.6292 20.3865 5.61641ZM35.3771 20.4807C35.3771 20.4212 35.3861 20.3957 35.3901 20.3852C35.3935 20.3765 35.4025 20.3561 35.4277 20.3226C35.4308 20.3224 35.4351 20.3222 35.4407 20.3222H39.3399C39.3449 20.3222 39.3488 20.3224 39.3517 20.3226C39.3563 20.323 39.3586 20.3234 39.3591 20.3235L39.3592 20.3236C39.3598 20.3237 39.3602 20.3238 39.3617 20.3244L39.3617 20.3244C39.3634 20.3251 39.3898 20.3366 39.438 20.3848C39.4866 20.4334 39.4977 20.4596 39.4981 20.4605C39.4986 20.4617 39.4986 20.4619 39.4987 20.4622L39.4987 20.4624C39.4989 20.4629 39.5 20.4684 39.5 20.4807C39.5 20.4931 39.4989 20.4985 39.4987 20.4991C39.4987 20.4995 39.4987 20.4996 39.4981 20.501L39.4981 20.501C39.4975 20.5024 39.486 20.5286 39.438 20.5767C39.4186 20.596 39.4054 20.6059 39.399 20.6102C39.3957 20.6124 39.3936 20.6136 39.3925 20.6142L39.3909 20.615L39.3897 20.6154C39.3889 20.6156 39.387 20.6161 39.3838 20.6167C39.3777 20.6179 39.3638 20.6199 39.3399 20.6199H35.4407C35.4345 20.6199 35.4289 20.6198 35.4241 20.6196C35.3953 20.5834 35.388 20.5649 35.3867 20.5616L35.3867 20.5615L35.3866 20.5613C35.3854 20.5582 35.3771 20.5379 35.3771 20.4807Z" stroke="#144B3B" stroke-width="3"/>
</svg>
