<svg width="34" height="34" viewBox="0 0 34 34" fill="none" xmlns="http://www.w3.org/2000/svg">
<path d="M28.3263 9.47466C29.5962 8.71545 30.5464 7.51999 30.9995 6.11149C29.8062 6.81957 28.5006 7.31834 27.1391 7.58624C26.2209 6.6149 25.0086 5.97254 23.6893 5.75818C22.3699 5.54381 21.0167 5.76934 19.8382 6.4C18.6596 7.03067 17.7213 8.03145 17.1677 9.24808C16.6141 10.4647 16.476 11.8296 16.7748 13.1325C14.3578 13.0111 11.9933 12.3829 9.83483 11.2885C7.67636 10.1942 5.77214 8.65814 4.24577 6.78016C3.46953 8.11906 3.232 9.70321 3.58142 11.2109C3.93085 12.7186 4.84103 14.0367 6.12711 14.8977C5.16194 14.8666 4.21819 14.6053 3.37452 14.1355V14.212C3.37479 15.6159 3.86063 16.9764 4.74963 18.063C5.63863 19.1495 6.87607 19.8951 8.25211 20.1733C7.35686 20.4169 6.41781 20.4527 5.50661 20.2782C5.89581 21.4856 6.65227 22.5414 7.67043 23.2983C8.68859 24.0551 9.91763 24.4751 11.186 24.4998C9.03245 26.1901 6.37286 27.1067 3.63519 27.1022C3.14927 27.1022 2.66477 27.0739 2.18311 27.0187C4.96319 28.805 8.19881 29.7533 11.5034 29.75C13.7794 29.7656 16.0358 29.3288 18.1416 28.465C20.2474 27.6012 22.1605 26.3275 23.7699 24.718C25.3793 23.1085 26.6528 21.1953 27.5164 19.0894C28.3801 16.9836 28.8167 14.7271 28.8009 12.4511C28.8009 12.1876 28.7952 11.9255 28.7824 11.6648C29.9731 10.8044 31.0007 9.73839 31.8169 8.51699C30.7077 9.00865 29.5311 9.33145 28.3263 9.47466Z" fill="#1B5E20"/>
</svg>
